Coordinates
version=1
nRows=11
nColumns=40
inDegrees=yes

Units are S.I. units (second, meters, Newtons, ...)
If the header above contains a line with 'inDegrees', this indicates whether rotational values are in degrees (yes) or radians (no).

endheader
time	pelvis_tilt	pelvis_list	pelvis_rotation	pelvis_tx	pelvis_ty	pelvis_tz	hip_flexion_r	hip_adduction_r	hip_rotation_r	knee_angle_r	knee_angle_r_beta	ankle_angle_r	subtalar_angle_r	mtp_angle_r	hip_flexion_l	hip_adduction_l	hip_rotation_l	knee_angle_l	knee_angle_l_beta	ankle_angle_l	subtalar_angle_l	mtp_angle_l	lumbar_extension	lumbar_bending	lumbar_rotation	arm_flex_r	arm_add_r	arm_rot_r	elbow_flex_r	pro_sup_r	wrist_flex_r	wrist_dev_r	arm_flex_l	arm_add_l	arm_rot_l	elbow_flex_l	pro_sup_l	wrist_flex_l	wrist_dev_l
      4.19500000	    -46.33829417	     -0.96040747	      5.59827121	      0.03236460	      0.54424078	     -1.18145429	    123.82039789	    -41.65134457	      8.28553518	     97.16728296	      1.69588901	     16.34996020	     -6.85794249	      0.00000000	    120.51533662	    -30.93334211	      4.39012727	     89.18756450	      1.55661665	     13.96039689	      8.02387293	      0.00000000	      0.00000000	      0.00000000	      0.00000000	     44.99990464	    -15.00000001	     44.99990464	     75.00017585	     45.00000026	      0.00000000	      0.00000000	     44.99990464	    -15.00000001	     44.99990464	     75.00017585	     45.00000026	      0.00000000	      0.00000000
      4.20000000	    -46.27404312	     -0.92708911	      5.56492555	      0.03202903	      0.54568380	     -1.18140121	    123.55456970	    -41.57227870	      8.14045580	     96.95194329	      1.69213063	     16.21955338	     -6.82175050	      0.00000000	    120.27960281	    -30.94432845	      4.24997824	     88.99883155	      1.55332264	     13.83131539	      7.90603907	      0.00000000	      0.00000000	      0.00000000	      0.00000000	     44.99990469	    -15.00000001	     44.99990469	     75.00017585	     45.00000026	      0.00000000	      0.00000000	     44.99990469	    -15.00000001	     44.99990469	     75.00017585	     45.00000026	      0.00000000	      0.00000000
      4.20500000	    -46.36075310	     -0.92249394	      5.57259957	      0.03138369	      0.54723190	     -1.18150456	    123.36244521	    -41.49613569	      7.97130849	     96.60854200	      1.68613714	     16.18856418	     -6.92372312	      0.00000000	    120.09584566	    -30.83075187	      4.09715726	     88.65634872	      1.54734519	     13.73711249	      7.76403354	      0.00000000	      0.00000000	      0.00000000	      0.00000000	     44.99990476	    -15.00000001	     44.99990476	     75.00017585	     45.00000026	      0.00000000	      0.00000000	     44.99990476	    -15.00000001	     44.99990476	     75.00017585	     45.00000026	      0.00000000	      0.00000000
      4.21000000	    -46.42460500	     -0.92168808	      5.58357203	      0.03081132	      0.54859093	     -1.18165230	    123.20300174	    -41.44559629	      7.82967495	     96.32745864	      1.68123131	     16.09610860	     -7.00773906	      0.00000000	    119.94101503	    -30.71786698	      3.97592910	     88.38367632	      1.54258616	     13.62885616	      7.61789303	      0.00000000	      0.00000000	      0.00000000	      0.00000000	     44.99990482	    -15.00000001	     44.99990482	     75.00017585	     45.00000026	      0.00000000	      0.00000000	     44.99990482	    -15.00000001	     44.99990482	     75.00017585	     45.00000026	      0.00000000	      0.00000000
      4.21500000	    -46.65922033	     -1.03516626	      5.73470381	      0.02997870	      0.54943242	     -1.18226807	    123.30533907	    -41.58861025	      7.72923188	     96.07428158	      1.67681254	     15.82017742	     -7.22067539	      0.00000000	    120.02300638	    -30.34245733	      3.93658308	     88.10651687	      1.53774881	     13.43197817	      7.33255914	      0.00000000	      0.00000000	      0.00000000	      0.00000000	     44.99990488	    -15.00000001	     44.99990488	     75.00017585	     45.00000026	      0.00000000	      0.00000000	     44.99990488	    -15.00000001	     44.99990488	     75.00017585	     45.00000026	      0.00000000	      0.00000000
      4.22000000	    -46.62071704	     -0.88523947	      5.59759168	      0.02959741	      0.55104669	     -1.18192314	    123.03158588	    -41.31059540	      7.61953051	     95.77299204	      1.67155405	     15.80249307	     -7.33734008	      0.00000000	    119.69833886	    -30.51136277	      3.71620329	     87.85794295	      1.53341038	     13.42255683	      7.30165328	      0.00000000	      0.00000000	      0.00000000	      0.00000000	     44.99990515	    -15.00000001	     44.99990515	     75.00017585	     45.00000026	      0.00000000	      0.00000000	     44.99990515	    -15.00000001	     44.99990515	     75.00017585	     45.00000026	      0.00000000	      0.00000000
      4.22500000	    -46.59688409	     -0.87349214	      5.57953310	      0.02920152	      0.55252459	     -1.18203226	    122.78794959	    -41.27477134	      7.45035519	     95.51439841	      1.66704074	     15.66559567	     -7.28919213	      0.00000000	    119.48337389	    -30.48285721	      3.56332505	     87.62009648	      1.52925917	     13.27834093	      7.16618419	      0.00000000	      0.00000000	      0.00000000	      0.00000000	     44.99990521	    -15.00000001	     44.99990521	     75.00017585	     45.00000026	      0.00000000	      0.00000000	     44.99990521	    -15.00000001	     44.99990521	     75.00017585	     45.00000026	      0.00000000	      0.00000000
      4.23000000	    -46.83591385	     -1.08931455	      5.84360337	      0.02829491	      0.55337791	     -1.18309792	    122.86669206	    -41.61728034	      7.30305538	     95.24893049	      1.66240745	     15.46627129	     -7.39599744	      0.00000000	    119.59787015	    -29.88293340	      3.60626129	     87.31286302	      1.52389694	     13.02593201	      6.76272286	      0.00000000	      0.00000000	      0.00000000	      0.00000000	     44.99990530	    -15.00000001	     44.99990530	     75.00017585	     45.00000026	      0.00000000	      0.00000000	     44.99990530	    -15.00000001	     44.99990530	     75.00017585	     45.00000026	      0.00000000	      0.00000000
      4.23500000	    -46.91628622	     -1.05709401	      5.84100961	      0.02771774	      0.55462879	     -1.18324982	    122.76600112	    -41.55113689	      7.20244101	     94.97068073	      1.65755107	     15.34502362	     -7.45977798	      0.00000000	    119.45797111	    -29.80080108	      3.46033134	     87.05026431	      1.51931373	     12.89219072	      6.58249002	      0.00000000	      0.00000000	      0.00000000	      0.00000000	     44.99990557	    -15.00000001	     44.99990557	     75.00017585	     45.00000026	      0.00000000	      0.00000000	     44.99990557	    -15.00000001	     44.99990557	     75.00017585	     45.00000026	      0.00000000	      0.00000000
      4.24000000	    -46.93599911	     -1.11322802	      5.90510503	      0.02719646	      0.55592311	     -1.18370180	    122.58373004	    -41.64564942	      7.03040021	     94.70969502	      1.65299601	     15.22209848	     -7.45864921	      0.00000000	    119.31622452	    -29.59282696	      3.40048338	     86.81149549	      1.51514642	     12.78275263	      6.42388324	      0.00000000	      0.00000000	      0.00000000	      0.00000000	     44.99990586	    -15.00000001	     44.99990586	     75.00017585	     45.00000026	      0.00000000	      0.00000000	     44.99990586	    -15.00000001	     44.99990586	     75.00017585	     45.00000026	      0.00000000	      0.00000000
      4.24500000	    -46.98335426	     -0.90206862	      5.66053522	      0.02676255	      0.55723565	     -1.18306355	    122.43187692	    -41.20077076	      6.96533033	     94.42528173	      1.64803206	     15.13248951	     -7.55579531	      0.00000000	    119.08508070	    -29.91265745	      3.19248940	     86.57539898	      1.51102576	     12.84744463	      6.59791647	      0.00000000	      0.00000000	      0.00000000	      0.00000000	     44.99990610	    -15.00000001	     44.99990610	     75.00017585	     45.00000026	      0.00000000	      0.00000000	     44.99990610	    -15.00000001	     44.99990610	     75.00017585	     45.00000026	      0.00000000	      0.00000000
